# 3ds Max Wavefront OBJ Exporter v0.97b - (c)2007 guruware
# File Created: 19.01.2019 10:21:17

#
# object Box001
#

v  -9.842520 0.000000 9.842520
v  9.842520 0.000000 9.842520
v  -9.842520 0.000000 -9.842520
v  9.842520 0.000000 -9.842520
v  -9.842520 70.866142 9.842520
v  9.842520 70.866142 9.842520
v  -9.842520 70.866142 -9.842520
v  9.842520 70.866142 -9.842520
# 8 vertices

vn 0.000000 -1.000000 -0.000000
vn 0.000000 1.000000 -0.000000
vn 0.000000 0.000000 1.000000
vn 1.000000 0.000000 -0.000000
vn 0.000000 0.000000 -1.000000
vn -1.000000 0.000000 -0.000000
# 6 vertex normals

vt 0.816709 0.714686 0.000000
vt 0.816709 0.540046 0.000000
vt 0.998000 0.542064 0.000000
vt 0.998000 0.712667 0.000000
vt 0.002515 0.536614 0.000000
vt 0.002000 0.365663 0.000000
vt 0.172945 0.363218 0.000000
vt 0.173471 0.538029 0.000000
vt 0.814020 0.002000 0.000000
vt 0.815095 0.180674 0.000000
vt 0.171870 0.184546 0.000000
vt 0.170794 0.005872 0.000000
vt 0.816171 0.359349 0.000000
vt 0.173472 0.716705 0.000000
# 14 texture coords

g Box001
f -8/-14/-6 -6/-13/-6 -5/-12/-6 
f -5/-12/-6 -7/-11/-6 -8/-14/-6 
f -4/-10/-5 -3/-9/-5 -1/-8/-5 
f -1/-8/-5 -2/-7/-5 -4/-10/-5 
f -8/-6/-4 -7/-5/-4 -3/-4/-4 
f -3/-4/-4 -4/-3/-4 -8/-6/-4 
f -7/-5/-3 -5/-2/-3 -1/-8/-3 
f -1/-8/-3 -3/-4/-3 -7/-5/-3 
f -5/-2/-2 -6/-13/-2 -2/-7/-2 
f -2/-7/-2 -1/-8/-2 -5/-2/-2 
f -6/-13/-1 -8/-14/-1 -4/-1/-1 
f -4/-1/-1 -2/-7/-1 -6/-13/-1 
# 12 faces

