# 3ds Max Wavefront OBJ Exporter v0.97b - (c)2007 guruware
# File Created: 25.05.2018 10:38:42

#
# object Box001
#

v  -272.330353 -10.558838 272.330353
v  272.330353 -10.558838 272.330353
v  -272.330353 -10.558838 -272.330353
v  272.330353 -10.558838 -272.330353
v  -272.330353 534.101868 272.330353
v  272.330353 534.101868 272.330353
v  -272.330353 534.101868 -272.330353
v  272.330353 534.101868 -272.330353
# 8 vertices

vn 0.000000 1.000000 -0.000000
vn 0.000000 -1.000000 -0.000000
vn 0.000000 0.000000 -1.000000
vn -1.000000 0.000000 -0.000000
vn 0.000000 0.000000 1.000000
vn 1.000000 0.000000 -0.000000
# 6 vertex normals

vt 0.499750 0.333655 0.000000
vt 0.249760 0.333655 0.000000
vt 0.249760 0.000326 0.000000
vt 0.499750 0.000329 0.000000
vt 0.499743 0.666626 0.000000
vt 0.499750 0.999998 0.000000
vt 0.249760 1.000002 0.000000
vt 0.249753 0.666626 0.000000
vt -0.000007 0.666626 0.000000
vt 0.000000 0.333655 0.000000
vt 1.000000 0.333655 0.000000
vt 0.999993 0.666626 0.000000
vt 0.749991 0.666626 0.000000
vt 0.749998 0.333655 0.000000
# 14 texture coords

g Box001
s 2
f -8/-14/-6 -7/-13/-6 -5/-12/-6 
f -5/-12/-6 -6/-11/-6 -8/-14/-6 
s 4
f -4/-10/-5 -2/-9/-5 -1/-8/-5 
f -1/-8/-5 -3/-7/-5 -4/-10/-5 
s 8
f -8/-14/-4 -4/-10/-4 -3/-7/-4 
f -3/-7/-4 -7/-13/-4 -8/-14/-4 
s 16
f -7/-13/-3 -3/-7/-3 -1/-6/-3 
f -1/-6/-3 -5/-5/-3 -7/-13/-3 
s 32
f -5/-4/-2 -1/-3/-2 -2/-2/-2 
f -2/-2/-2 -6/-1/-2 -5/-4/-2 
s 64
f -6/-1/-1 -2/-2/-1 -4/-10/-1 
f -4/-10/-1 -8/-14/-1 -6/-1/-1 
# 12 faces

